<mxfile host="app.diagrams.net" modified="2021-07-18T15:22:50.125Z" agent="5.0 (X11; Linux x86_64) AppleWebKit/537.36 (KHTML, like Gecko) Chrome/91.0.4472.114 Safari/537.36" etag="I0AxtNq85ISwwQGV1h65" version="14.9.0" type="github" pages="4">
  <diagram id="rvQAmEqfrT1Bc9cz1pwi" name="saga-blank">
    <mxGraphModel dx="1718" dy="587" grid="1" gridSize="10" guides="1" tooltips="1" connect="1" arrows="1" fold="1" page="1" pageScale="1" pageWidth="850" pageHeight="1100" math="0" shadow="0">
      <root>
        <mxCell id="0" />
        <mxCell id="1" parent="0" />
        <mxCell id="DSEFTAQ7fMuhu2_fSpxY-21" value="" style="edgeStyle=orthogonalEdgeStyle;rounded=0;orthogonalLoop=1;jettySize=auto;html=1;" edge="1" parent="1" source="DSEFTAQ7fMuhu2_fSpxY-7" target="DSEFTAQ7fMuhu2_fSpxY-8">
          <mxGeometry relative="1" as="geometry" />
        </mxCell>
        <mxCell id="DSEFTAQ7fMuhu2_fSpxY-7" value="" style="whiteSpace=wrap;html=1;aspect=fixed;" vertex="1" parent="1">
          <mxGeometry x="380" y="120" width="140" height="140" as="geometry" />
        </mxCell>
        <mxCell id="DSEFTAQ7fMuhu2_fSpxY-3" value="" style="shape=datastore;whiteSpace=wrap;html=1;" vertex="1" parent="1">
          <mxGeometry x="420" y="160" width="60" height="60" as="geometry" />
        </mxCell>
        <mxCell id="DSEFTAQ7fMuhu2_fSpxY-14" value="Service" style="text;html=1;strokeColor=none;fillColor=none;align=center;verticalAlign=middle;whiteSpace=wrap;rounded=0;" vertex="1" parent="1">
          <mxGeometry x="430" y="120" width="40" height="20" as="geometry" />
        </mxCell>
        <mxCell id="DSEFTAQ7fMuhu2_fSpxY-17" value="local transaction" style="text;html=1;strokeColor=none;fillColor=none;align=center;verticalAlign=middle;whiteSpace=wrap;rounded=0;" vertex="1" parent="1">
          <mxGeometry x="405" y="220" width="90" height="20" as="geometry" />
        </mxCell>
        <mxCell id="DSEFTAQ7fMuhu2_fSpxY-18" value="" style="group" vertex="1" connectable="0" parent="1">
          <mxGeometry x="150" y="120" width="140" height="140" as="geometry" />
        </mxCell>
        <mxCell id="DSEFTAQ7fMuhu2_fSpxY-6" value="" style="whiteSpace=wrap;html=1;aspect=fixed;" vertex="1" parent="DSEFTAQ7fMuhu2_fSpxY-18">
          <mxGeometry width="140" height="140" as="geometry" />
        </mxCell>
        <mxCell id="DSEFTAQ7fMuhu2_fSpxY-4" value="" style="shape=datastore;whiteSpace=wrap;html=1;" vertex="1" parent="DSEFTAQ7fMuhu2_fSpxY-18">
          <mxGeometry x="40" y="40" width="60" height="60" as="geometry" />
        </mxCell>
        <mxCell id="DSEFTAQ7fMuhu2_fSpxY-10" value="Service" style="text;html=1;strokeColor=none;fillColor=none;align=center;verticalAlign=middle;whiteSpace=wrap;rounded=0;" vertex="1" parent="DSEFTAQ7fMuhu2_fSpxY-18">
          <mxGeometry x="50" width="40" height="20" as="geometry" />
        </mxCell>
        <mxCell id="DSEFTAQ7fMuhu2_fSpxY-15" value="local transaction" style="text;html=1;strokeColor=none;fillColor=none;align=center;verticalAlign=middle;whiteSpace=wrap;rounded=0;" vertex="1" parent="DSEFTAQ7fMuhu2_fSpxY-18">
          <mxGeometry x="25" y="100" width="90" height="20" as="geometry" />
        </mxCell>
        <mxCell id="DSEFTAQ7fMuhu2_fSpxY-19" value="" style="group" vertex="1" connectable="0" parent="1">
          <mxGeometry x="620" y="120" width="140" height="140" as="geometry" />
        </mxCell>
        <mxCell id="DSEFTAQ7fMuhu2_fSpxY-8" value="" style="whiteSpace=wrap;html=1;aspect=fixed;" vertex="1" parent="DSEFTAQ7fMuhu2_fSpxY-19">
          <mxGeometry width="140" height="140" as="geometry" />
        </mxCell>
        <mxCell id="DSEFTAQ7fMuhu2_fSpxY-5" value="" style="shape=datastore;whiteSpace=wrap;html=1;" vertex="1" parent="DSEFTAQ7fMuhu2_fSpxY-19">
          <mxGeometry x="40" y="40" width="60" height="60" as="geometry" />
        </mxCell>
        <mxCell id="DSEFTAQ7fMuhu2_fSpxY-13" value="Service" style="text;html=1;strokeColor=none;fillColor=none;align=center;verticalAlign=middle;whiteSpace=wrap;rounded=0;" vertex="1" parent="DSEFTAQ7fMuhu2_fSpxY-19">
          <mxGeometry x="50" width="40" height="20" as="geometry" />
        </mxCell>
        <mxCell id="DSEFTAQ7fMuhu2_fSpxY-16" value="local transaction" style="text;html=1;strokeColor=none;fillColor=none;align=center;verticalAlign=middle;whiteSpace=wrap;rounded=0;" vertex="1" parent="DSEFTAQ7fMuhu2_fSpxY-19">
          <mxGeometry x="25" y="100" width="90" height="20" as="geometry" />
        </mxCell>
        <mxCell id="DSEFTAQ7fMuhu2_fSpxY-20" style="edgeStyle=orthogonalEdgeStyle;rounded=0;orthogonalLoop=1;jettySize=auto;html=1;entryX=0;entryY=0.5;entryDx=0;entryDy=0;" edge="1" parent="1" source="DSEFTAQ7fMuhu2_fSpxY-6" target="DSEFTAQ7fMuhu2_fSpxY-7">
          <mxGeometry relative="1" as="geometry" />
        </mxCell>
        <mxCell id="DSEFTAQ7fMuhu2_fSpxY-22" value="Event" style="text;html=1;strokeColor=none;fillColor=none;align=center;verticalAlign=middle;whiteSpace=wrap;rounded=0;" vertex="1" parent="1">
          <mxGeometry x="320" y="170" width="40" height="20" as="geometry" />
        </mxCell>
        <mxCell id="DSEFTAQ7fMuhu2_fSpxY-23" value="Event" style="text;html=1;strokeColor=none;fillColor=none;align=center;verticalAlign=middle;whiteSpace=wrap;rounded=0;" vertex="1" parent="1">
          <mxGeometry x="550" y="170" width="40" height="20" as="geometry" />
        </mxCell>
        <mxCell id="m8-2pFj62Zbp1g3OHefu-3" style="edgeStyle=orthogonalEdgeStyle;rounded=0;orthogonalLoop=1;jettySize=auto;html=1;entryX=0;entryY=0.5;entryDx=0;entryDy=0;" edge="1" parent="1" source="m8-2pFj62Zbp1g3OHefu-2" target="DSEFTAQ7fMuhu2_fSpxY-6">
          <mxGeometry relative="1" as="geometry" />
        </mxCell>
        <mxCell id="m8-2pFj62Zbp1g3OHefu-2" value="start" style="ellipse;whiteSpace=wrap;html=1;aspect=fixed;" vertex="1" parent="1">
          <mxGeometry x="80" y="165" width="50" height="50" as="geometry" />
        </mxCell>
        <mxCell id="m8-2pFj62Zbp1g3OHefu-4" value="end" style="ellipse;whiteSpace=wrap;html=1;aspect=fixed;" vertex="1" parent="1">
          <mxGeometry x="780" y="165" width="50" height="50" as="geometry" />
        </mxCell>
        <mxCell id="m8-2pFj62Zbp1g3OHefu-5" style="edgeStyle=orthogonalEdgeStyle;rounded=0;orthogonalLoop=1;jettySize=auto;html=1;entryX=0;entryY=0.5;entryDx=0;entryDy=0;" edge="1" parent="1" source="DSEFTAQ7fMuhu2_fSpxY-8" target="m8-2pFj62Zbp1g3OHefu-4">
          <mxGeometry relative="1" as="geometry" />
        </mxCell>
      </root>
    </mxGraphModel>
  </diagram>
  <diagram name="saga" id="96wSvtgNzUAQVmHGBahQ">
    <mxGraphModel dx="2062" dy="704" grid="1" gridSize="10" guides="1" tooltips="1" connect="1" arrows="1" fold="1" page="1" pageScale="1" pageWidth="850" pageHeight="1100" math="0" shadow="0">
      <root>
        <mxCell id="GifG3WT3D6SPTpqG9Ch6-0" />
        <mxCell id="GifG3WT3D6SPTpqG9Ch6-1" parent="GifG3WT3D6SPTpqG9Ch6-0" />
        <mxCell id="GifG3WT3D6SPTpqG9Ch6-2" value="" style="edgeStyle=orthogonalEdgeStyle;rounded=0;orthogonalLoop=1;jettySize=auto;html=1;" edge="1" parent="GifG3WT3D6SPTpqG9Ch6-1" source="GifG3WT3D6SPTpqG9Ch6-3" target="GifG3WT3D6SPTpqG9Ch6-13">
          <mxGeometry relative="1" as="geometry" />
        </mxCell>
        <mxCell id="GifG3WT3D6SPTpqG9Ch6-3" value="" style="whiteSpace=wrap;html=1;aspect=fixed;" vertex="1" parent="GifG3WT3D6SPTpqG9Ch6-1">
          <mxGeometry x="380" y="120" width="140" height="140" as="geometry" />
        </mxCell>
        <mxCell id="GifG3WT3D6SPTpqG9Ch6-4" value="" style="shape=datastore;whiteSpace=wrap;html=1;" vertex="1" parent="GifG3WT3D6SPTpqG9Ch6-1">
          <mxGeometry x="420" y="160" width="60" height="60" as="geometry" />
        </mxCell>
        <mxCell id="GifG3WT3D6SPTpqG9Ch6-5" value="Service" style="text;html=1;strokeColor=none;fillColor=none;align=center;verticalAlign=middle;whiteSpace=wrap;rounded=0;" vertex="1" parent="GifG3WT3D6SPTpqG9Ch6-1">
          <mxGeometry x="430" y="120" width="40" height="20" as="geometry" />
        </mxCell>
        <mxCell id="GifG3WT3D6SPTpqG9Ch6-6" value="local transaction" style="text;html=1;strokeColor=none;fillColor=none;align=center;verticalAlign=middle;whiteSpace=wrap;rounded=0;" vertex="1" parent="GifG3WT3D6SPTpqG9Ch6-1">
          <mxGeometry x="405" y="220" width="90" height="20" as="geometry" />
        </mxCell>
        <mxCell id="GifG3WT3D6SPTpqG9Ch6-7" value="" style="group" vertex="1" connectable="0" parent="GifG3WT3D6SPTpqG9Ch6-1">
          <mxGeometry x="150" y="120" width="140" height="140" as="geometry" />
        </mxCell>
        <mxCell id="GifG3WT3D6SPTpqG9Ch6-8" value="" style="whiteSpace=wrap;html=1;aspect=fixed;" vertex="1" parent="GifG3WT3D6SPTpqG9Ch6-7">
          <mxGeometry width="140" height="140" as="geometry" />
        </mxCell>
        <mxCell id="GifG3WT3D6SPTpqG9Ch6-9" value="" style="shape=datastore;whiteSpace=wrap;html=1;" vertex="1" parent="GifG3WT3D6SPTpqG9Ch6-7">
          <mxGeometry x="40" y="40" width="60" height="60" as="geometry" />
        </mxCell>
        <mxCell id="GifG3WT3D6SPTpqG9Ch6-10" value="Service" style="text;html=1;strokeColor=none;fillColor=none;align=center;verticalAlign=middle;whiteSpace=wrap;rounded=0;" vertex="1" parent="GifG3WT3D6SPTpqG9Ch6-7">
          <mxGeometry x="50" width="40" height="20" as="geometry" />
        </mxCell>
        <mxCell id="GifG3WT3D6SPTpqG9Ch6-11" value="local transaction" style="text;html=1;strokeColor=none;fillColor=none;align=center;verticalAlign=middle;whiteSpace=wrap;rounded=0;" vertex="1" parent="GifG3WT3D6SPTpqG9Ch6-7">
          <mxGeometry x="25" y="100" width="90" height="20" as="geometry" />
        </mxCell>
        <mxCell id="GifG3WT3D6SPTpqG9Ch6-12" value="" style="group;container=1;" vertex="1" connectable="0" parent="GifG3WT3D6SPTpqG9Ch6-1">
          <mxGeometry x="620" y="120" width="140" height="140" as="geometry" />
        </mxCell>
        <mxCell id="GifG3WT3D6SPTpqG9Ch6-13" value="" style="whiteSpace=wrap;html=1;aspect=fixed;" vertex="1" parent="GifG3WT3D6SPTpqG9Ch6-12">
          <mxGeometry width="140" height="140" as="geometry" />
        </mxCell>
        <mxCell id="GifG3WT3D6SPTpqG9Ch6-14" value="" style="shape=datastore;whiteSpace=wrap;html=1;" vertex="1" parent="GifG3WT3D6SPTpqG9Ch6-12">
          <mxGeometry x="40" y="40" width="60" height="60" as="geometry" />
        </mxCell>
        <mxCell id="GifG3WT3D6SPTpqG9Ch6-15" value="Service" style="text;html=1;strokeColor=none;fillColor=none;align=center;verticalAlign=middle;whiteSpace=wrap;rounded=0;" vertex="1" parent="GifG3WT3D6SPTpqG9Ch6-12">
          <mxGeometry x="50" width="40" height="20" as="geometry" />
        </mxCell>
        <mxCell id="GifG3WT3D6SPTpqG9Ch6-16" value="local transaction" style="text;html=1;strokeColor=none;fillColor=none;align=center;verticalAlign=middle;whiteSpace=wrap;rounded=0;" vertex="1" parent="GifG3WT3D6SPTpqG9Ch6-12">
          <mxGeometry x="25" y="100" width="90" height="20" as="geometry" />
        </mxCell>
        <mxCell id="GifG3WT3D6SPTpqG9Ch6-17" style="edgeStyle=orthogonalEdgeStyle;rounded=0;orthogonalLoop=1;jettySize=auto;html=1;entryX=0;entryY=0.5;entryDx=0;entryDy=0;" edge="1" parent="GifG3WT3D6SPTpqG9Ch6-1" source="GifG3WT3D6SPTpqG9Ch6-8" target="GifG3WT3D6SPTpqG9Ch6-3">
          <mxGeometry relative="1" as="geometry" />
        </mxCell>
        <mxCell id="GifG3WT3D6SPTpqG9Ch6-18" value="Event" style="text;html=1;strokeColor=none;fillColor=none;align=center;verticalAlign=middle;whiteSpace=wrap;rounded=0;" vertex="1" parent="GifG3WT3D6SPTpqG9Ch6-1">
          <mxGeometry x="320" y="170" width="40" height="20" as="geometry" />
        </mxCell>
        <mxCell id="GifG3WT3D6SPTpqG9Ch6-19" value="Event" style="text;html=1;strokeColor=none;fillColor=none;align=center;verticalAlign=middle;whiteSpace=wrap;rounded=0;" vertex="1" parent="GifG3WT3D6SPTpqG9Ch6-1">
          <mxGeometry x="550" y="170" width="40" height="20" as="geometry" />
        </mxCell>
        <mxCell id="GifG3WT3D6SPTpqG9Ch6-20" style="edgeStyle=orthogonalEdgeStyle;rounded=0;orthogonalLoop=1;jettySize=auto;html=1;entryX=0;entryY=0.5;entryDx=0;entryDy=0;" edge="1" parent="GifG3WT3D6SPTpqG9Ch6-1" target="GifG3WT3D6SPTpqG9Ch6-8">
          <mxGeometry relative="1" as="geometry">
            <mxPoint x="130" y="190" as="sourcePoint" />
          </mxGeometry>
        </mxCell>
        <mxCell id="GifG3WT3D6SPTpqG9Ch6-21" value="end" style="ellipse;whiteSpace=wrap;html=1;aspect=fixed;" vertex="1" parent="GifG3WT3D6SPTpqG9Ch6-1">
          <mxGeometry x="780" y="165" width="50" height="50" as="geometry" />
        </mxCell>
        <mxCell id="GifG3WT3D6SPTpqG9Ch6-22" style="edgeStyle=orthogonalEdgeStyle;rounded=0;orthogonalLoop=1;jettySize=auto;html=1;entryX=0;entryY=0.5;entryDx=0;entryDy=0;" edge="1" parent="GifG3WT3D6SPTpqG9Ch6-1" source="GifG3WT3D6SPTpqG9Ch6-13" target="GifG3WT3D6SPTpqG9Ch6-21">
          <mxGeometry relative="1" as="geometry" />
        </mxCell>
        <mxCell id="GifG3WT3D6SPTpqG9Ch6-30" value="start" style="ellipse;whiteSpace=wrap;html=1;aspect=fixed;" vertex="1" parent="GifG3WT3D6SPTpqG9Ch6-1">
          <mxGeometry x="80" y="165" width="50" height="50" as="geometry" />
        </mxCell>
      </root>
    </mxGraphModel>
  </diagram>
  <diagram id="V_xsiubVxNdeTzsCSFVf" name="saga-rollback">
    <mxGraphModel dx="2062" dy="704" grid="1" gridSize="10" guides="1" tooltips="1" connect="1" arrows="1" fold="1" page="1" pageScale="1" pageWidth="850" pageHeight="1100" math="0" shadow="0">
      <root>
        <mxCell id="Uh4YaoXaCllbLskQOlrS-0" />
        <mxCell id="Uh4YaoXaCllbLskQOlrS-1" parent="Uh4YaoXaCllbLskQOlrS-0" />
        <mxCell id="dWM5IZoXvUawYgwMCB0q-0" value="" style="edgeStyle=orthogonalEdgeStyle;rounded=0;orthogonalLoop=1;jettySize=auto;html=1;" edge="1" parent="Uh4YaoXaCllbLskQOlrS-1" source="dWM5IZoXvUawYgwMCB0q-1" target="dWM5IZoXvUawYgwMCB0q-11">
          <mxGeometry relative="1" as="geometry" />
        </mxCell>
        <mxCell id="dWM5IZoXvUawYgwMCB0q-1" value="" style="whiteSpace=wrap;html=1;aspect=fixed;" vertex="1" parent="Uh4YaoXaCllbLskQOlrS-1">
          <mxGeometry x="380" y="120" width="140" height="140" as="geometry" />
        </mxCell>
        <mxCell id="dWM5IZoXvUawYgwMCB0q-2" value="" style="shape=datastore;whiteSpace=wrap;html=1;" vertex="1" parent="Uh4YaoXaCllbLskQOlrS-1">
          <mxGeometry x="420" y="160" width="60" height="60" as="geometry" />
        </mxCell>
        <mxCell id="dWM5IZoXvUawYgwMCB0q-3" value="Service" style="text;html=1;strokeColor=none;fillColor=none;align=center;verticalAlign=middle;whiteSpace=wrap;rounded=0;" vertex="1" parent="Uh4YaoXaCllbLskQOlrS-1">
          <mxGeometry x="430" y="120" width="40" height="20" as="geometry" />
        </mxCell>
        <mxCell id="dWM5IZoXvUawYgwMCB0q-4" value="local transaction" style="text;html=1;strokeColor=none;fillColor=none;align=center;verticalAlign=middle;whiteSpace=wrap;rounded=0;" vertex="1" parent="Uh4YaoXaCllbLskQOlrS-1">
          <mxGeometry x="405" y="220" width="90" height="20" as="geometry" />
        </mxCell>
        <mxCell id="dWM5IZoXvUawYgwMCB0q-5" value="" style="group" vertex="1" connectable="0" parent="Uh4YaoXaCllbLskQOlrS-1">
          <mxGeometry x="150" y="120" width="140" height="140" as="geometry" />
        </mxCell>
        <mxCell id="dWM5IZoXvUawYgwMCB0q-6" value="" style="whiteSpace=wrap;html=1;aspect=fixed;" vertex="1" parent="dWM5IZoXvUawYgwMCB0q-5">
          <mxGeometry width="140" height="140" as="geometry" />
        </mxCell>
        <mxCell id="dWM5IZoXvUawYgwMCB0q-7" value="" style="shape=datastore;whiteSpace=wrap;html=1;" vertex="1" parent="dWM5IZoXvUawYgwMCB0q-5">
          <mxGeometry x="40" y="40" width="60" height="60" as="geometry" />
        </mxCell>
        <mxCell id="dWM5IZoXvUawYgwMCB0q-8" value="Service" style="text;html=1;strokeColor=none;fillColor=none;align=center;verticalAlign=middle;whiteSpace=wrap;rounded=0;" vertex="1" parent="dWM5IZoXvUawYgwMCB0q-5">
          <mxGeometry x="50" width="40" height="20" as="geometry" />
        </mxCell>
        <mxCell id="dWM5IZoXvUawYgwMCB0q-9" value="local transaction" style="text;html=1;strokeColor=none;fillColor=none;align=center;verticalAlign=middle;whiteSpace=wrap;rounded=0;" vertex="1" parent="dWM5IZoXvUawYgwMCB0q-5">
          <mxGeometry x="25" y="100" width="90" height="20" as="geometry" />
        </mxCell>
        <mxCell id="dWM5IZoXvUawYgwMCB0q-10" value="" style="group;container=1;" vertex="1" connectable="0" parent="Uh4YaoXaCllbLskQOlrS-1">
          <mxGeometry x="620" y="120" width="140" height="140" as="geometry" />
        </mxCell>
        <mxCell id="dWM5IZoXvUawYgwMCB0q-11" value="" style="whiteSpace=wrap;html=1;aspect=fixed;" vertex="1" parent="dWM5IZoXvUawYgwMCB0q-10">
          <mxGeometry width="140" height="140" as="geometry" />
        </mxCell>
        <mxCell id="dWM5IZoXvUawYgwMCB0q-12" value="" style="shape=datastore;whiteSpace=wrap;html=1;" vertex="1" parent="dWM5IZoXvUawYgwMCB0q-10">
          <mxGeometry x="40" y="40" width="60" height="60" as="geometry" />
        </mxCell>
        <mxCell id="dWM5IZoXvUawYgwMCB0q-13" value="Service" style="text;html=1;strokeColor=none;fillColor=none;align=center;verticalAlign=middle;whiteSpace=wrap;rounded=0;" vertex="1" parent="dWM5IZoXvUawYgwMCB0q-10">
          <mxGeometry x="50" width="40" height="20" as="geometry" />
        </mxCell>
        <mxCell id="dWM5IZoXvUawYgwMCB0q-14" value="&lt;font color=&quot;#ff3333&quot;&gt;local transaction&lt;br&gt;&lt;/font&gt;" style="text;html=1;strokeColor=none;fillColor=none;align=center;verticalAlign=middle;whiteSpace=wrap;rounded=0;" vertex="1" parent="dWM5IZoXvUawYgwMCB0q-10">
          <mxGeometry x="25" y="100" width="90" height="20" as="geometry" />
        </mxCell>
        <mxCell id="dWM5IZoXvUawYgwMCB0q-15" style="edgeStyle=orthogonalEdgeStyle;rounded=0;orthogonalLoop=1;jettySize=auto;html=1;entryX=0;entryY=0.5;entryDx=0;entryDy=0;" edge="1" parent="Uh4YaoXaCllbLskQOlrS-1" source="dWM5IZoXvUawYgwMCB0q-6" target="dWM5IZoXvUawYgwMCB0q-1">
          <mxGeometry relative="1" as="geometry" />
        </mxCell>
        <mxCell id="dWM5IZoXvUawYgwMCB0q-16" value="Event" style="text;html=1;strokeColor=none;fillColor=none;align=center;verticalAlign=middle;whiteSpace=wrap;rounded=0;" vertex="1" parent="Uh4YaoXaCllbLskQOlrS-1">
          <mxGeometry x="320" y="170" width="40" height="20" as="geometry" />
        </mxCell>
        <mxCell id="dWM5IZoXvUawYgwMCB0q-17" value="Event" style="text;html=1;strokeColor=none;fillColor=none;align=center;verticalAlign=middle;whiteSpace=wrap;rounded=0;" vertex="1" parent="Uh4YaoXaCllbLskQOlrS-1">
          <mxGeometry x="550" y="170" width="40" height="20" as="geometry" />
        </mxCell>
        <mxCell id="dWM5IZoXvUawYgwMCB0q-18" style="edgeStyle=orthogonalEdgeStyle;rounded=0;orthogonalLoop=1;jettySize=auto;html=1;entryX=0;entryY=0.5;entryDx=0;entryDy=0;" edge="1" parent="Uh4YaoXaCllbLskQOlrS-1" target="dWM5IZoXvUawYgwMCB0q-6">
          <mxGeometry relative="1" as="geometry">
            <mxPoint x="130" y="190" as="sourcePoint" />
          </mxGeometry>
        </mxCell>
        <mxCell id="dWM5IZoXvUawYgwMCB0q-19" value="end" style="ellipse;whiteSpace=wrap;html=1;aspect=fixed;" vertex="1" parent="Uh4YaoXaCllbLskQOlrS-1">
          <mxGeometry x="780" y="165" width="50" height="50" as="geometry" />
        </mxCell>
        <mxCell id="dWM5IZoXvUawYgwMCB0q-20" style="edgeStyle=orthogonalEdgeStyle;rounded=0;orthogonalLoop=1;jettySize=auto;html=1;entryX=0;entryY=0.5;entryDx=0;entryDy=0;" edge="1" parent="Uh4YaoXaCllbLskQOlrS-1" source="dWM5IZoXvUawYgwMCB0q-11" target="dWM5IZoXvUawYgwMCB0q-19">
          <mxGeometry relative="1" as="geometry" />
        </mxCell>
        <mxCell id="dWM5IZoXvUawYgwMCB0q-22" value="&lt;span style=&quot;color: rgb(255 , 51 , 51)&quot;&gt;&lt;font style=&quot;font-size: 10px&quot;&gt;&lt;b&gt;SOMETHING WENT WRONG&lt;/b&gt;&lt;/font&gt;&lt;/span&gt;" style="text;html=1;strokeColor=none;fillColor=none;align=center;verticalAlign=middle;whiteSpace=wrap;rounded=0;" vertex="1" parent="Uh4YaoXaCllbLskQOlrS-1">
          <mxGeometry x="660" y="190" width="60" height="20" as="geometry" />
        </mxCell>
        <mxCell id="dWM5IZoXvUawYgwMCB0q-28" style="edgeStyle=orthogonalEdgeStyle;rounded=0;orthogonalLoop=1;jettySize=auto;html=1;entryX=1;entryY=0.5;entryDx=0;entryDy=0;fillColor=#e51400;strokeColor=#B20000;strokeWidth=2;" edge="1" parent="Uh4YaoXaCllbLskQOlrS-1" source="dWM5IZoXvUawYgwMCB0q-24" target="dWM5IZoXvUawYgwMCB0q-26">
          <mxGeometry relative="1" as="geometry" />
        </mxCell>
        <mxCell id="dWM5IZoXvUawYgwMCB0q-24" value="compensating transaction" style="rounded=0;whiteSpace=wrap;html=1;fillColor=#fa6800;strokeColor=#C73500;fontColor=#000000;" vertex="1" parent="Uh4YaoXaCllbLskQOlrS-1">
          <mxGeometry x="620" y="260" width="140" height="60" as="geometry" />
        </mxCell>
        <mxCell id="dWM5IZoXvUawYgwMCB0q-29" style="edgeStyle=orthogonalEdgeStyle;rounded=0;orthogonalLoop=1;jettySize=auto;html=1;entryX=1;entryY=0.5;entryDx=0;entryDy=0;strokeWidth=2;fillColor=#e51400;strokeColor=#B20000;" edge="1" parent="Uh4YaoXaCllbLskQOlrS-1" source="dWM5IZoXvUawYgwMCB0q-26" target="dWM5IZoXvUawYgwMCB0q-27">
          <mxGeometry relative="1" as="geometry" />
        </mxCell>
        <mxCell id="dWM5IZoXvUawYgwMCB0q-26" value="compensating transaction" style="rounded=0;whiteSpace=wrap;html=1;fillColor=#FFD966;" vertex="1" parent="Uh4YaoXaCllbLskQOlrS-1">
          <mxGeometry x="380" y="260" width="140" height="60" as="geometry" />
        </mxCell>
        <mxCell id="dWM5IZoXvUawYgwMCB0q-32" style="edgeStyle=orthogonalEdgeStyle;rounded=0;orthogonalLoop=1;jettySize=auto;html=1;strokeWidth=2;fillColor=#e51400;strokeColor=#B20000;" edge="1" parent="Uh4YaoXaCllbLskQOlrS-1" source="dWM5IZoXvUawYgwMCB0q-27">
          <mxGeometry relative="1" as="geometry">
            <mxPoint x="810" y="210" as="targetPoint" />
            <Array as="points">
              <mxPoint x="220" y="360" />
              <mxPoint x="810" y="360" />
            </Array>
          </mxGeometry>
        </mxCell>
        <mxCell id="dWM5IZoXvUawYgwMCB0q-27" value="compensating transaction" style="rounded=0;whiteSpace=wrap;html=1;fillColor=#FFD966;" vertex="1" parent="Uh4YaoXaCllbLskQOlrS-1">
          <mxGeometry x="150" y="260" width="140" height="60" as="geometry" />
        </mxCell>
        <mxCell id="wM1O0i3XIp0L6KHD4nlG-0" value="start" style="ellipse;whiteSpace=wrap;html=1;aspect=fixed;" vertex="1" parent="Uh4YaoXaCllbLskQOlrS-1">
          <mxGeometry x="80" y="165" width="50" height="50" as="geometry" />
        </mxCell>
      </root>
    </mxGraphModel>
  </diagram>
  <diagram name="saga-choreography" id="CRVwc9Dm008APc5cyuVk">
    <mxGraphModel dx="2062" dy="704" grid="1" gridSize="10" guides="1" tooltips="1" connect="1" arrows="1" fold="1" page="1" pageScale="1" pageWidth="850" pageHeight="1100" math="0" shadow="0">
      <root>
        <mxCell id="vW7ADBKtb9ZJt9d_Y6F5-0" />
        <mxCell id="vW7ADBKtb9ZJt9d_Y6F5-1" parent="vW7ADBKtb9ZJt9d_Y6F5-0" />
        <mxCell id="vW7ADBKtb9ZJt9d_Y6F5-47" value="" style="rounded=0;whiteSpace=wrap;html=1;fillColor=#dae8fc;strokeColor=#6c8ebf;" vertex="1" parent="vW7ADBKtb9ZJt9d_Y6F5-1">
          <mxGeometry x="360" y="130" width="120" height="370" as="geometry" />
        </mxCell>
        <mxCell id="vW7ADBKtb9ZJt9d_Y6F5-52" style="edgeStyle=none;rounded=0;orthogonalLoop=1;jettySize=auto;html=1;entryX=-0.01;entryY=0.35;entryDx=0;entryDy=0;entryPerimeter=0;strokeWidth=2;exitX=1;exitY=0.45;exitDx=0;exitDy=0;exitPerimeter=0;" edge="1" parent="vW7ADBKtb9ZJt9d_Y6F5-1" source="vW7ADBKtb9ZJt9d_Y6F5-31" target="vW7ADBKtb9ZJt9d_Y6F5-48">
          <mxGeometry relative="1" as="geometry" />
        </mxCell>
        <mxCell id="vW7ADBKtb9ZJt9d_Y6F5-31" value="&lt;b&gt;Client&lt;br&gt;Service&lt;/b&gt;" style="shape=cube;whiteSpace=wrap;html=1;boundedLbl=1;backgroundOutline=1;darkOpacity=0.05;darkOpacity2=0.1;fillColor=#ffe6cc;strokeColor=#d79b00;" vertex="1" parent="vW7ADBKtb9ZJt9d_Y6F5-1">
          <mxGeometry x="110" y="270" width="120" height="80" as="geometry" />
        </mxCell>
        <mxCell id="vW7ADBKtb9ZJt9d_Y6F5-56" style="edgeStyle=none;rounded=0;orthogonalLoop=1;jettySize=auto;html=1;entryX=1;entryY=0.5;entryDx=0;entryDy=0;entryPerimeter=0;strokeWidth=2;exitX=-0.008;exitY=0.675;exitDx=0;exitDy=0;exitPerimeter=0;" edge="1" parent="vW7ADBKtb9ZJt9d_Y6F5-1" source="vW7ADBKtb9ZJt9d_Y6F5-40" target="vW7ADBKtb9ZJt9d_Y6F5-50">
          <mxGeometry relative="1" as="geometry" />
        </mxCell>
        <mxCell id="vW7ADBKtb9ZJt9d_Y6F5-40" value="&lt;b&gt;Service A&lt;/b&gt;" style="shape=cube;whiteSpace=wrap;html=1;boundedLbl=1;backgroundOutline=1;darkOpacity=0.05;darkOpacity2=0.1;fillColor=#ffe6cc;strokeColor=#d79b00;" vertex="1" parent="vW7ADBKtb9ZJt9d_Y6F5-1">
          <mxGeometry x="610" y="125" width="120" height="80" as="geometry" />
        </mxCell>
        <mxCell id="vW7ADBKtb9ZJt9d_Y6F5-68" style="edgeStyle=none;rounded=0;orthogonalLoop=1;jettySize=auto;html=1;entryX=0.9;entryY=0.5;entryDx=0;entryDy=0;entryPerimeter=0;strokeWidth=2;" edge="1" parent="vW7ADBKtb9ZJt9d_Y6F5-1">
          <mxGeometry relative="1" as="geometry">
            <mxPoint x="617" y="445" as="sourcePoint" />
            <mxPoint x="467" y="420" as="targetPoint" />
          </mxGeometry>
        </mxCell>
        <mxCell id="vW7ADBKtb9ZJt9d_Y6F5-41" value="Service C" style="shape=cube;whiteSpace=wrap;html=1;boundedLbl=1;backgroundOutline=1;darkOpacity=0.05;darkOpacity2=0.1;fillColor=#ffe6cc;fontStyle=1;strokeColor=#d79b00;" vertex="1" parent="vW7ADBKtb9ZJt9d_Y6F5-1">
          <mxGeometry x="610" y="415" width="120" height="80" as="geometry" />
        </mxCell>
        <mxCell id="vW7ADBKtb9ZJt9d_Y6F5-59" style="edgeStyle=none;rounded=0;orthogonalLoop=1;jettySize=auto;html=1;entryX=1;entryY=0.5;entryDx=0;entryDy=0;entryPerimeter=0;strokeWidth=2;exitX=-0.033;exitY=0.488;exitDx=0;exitDy=0;exitPerimeter=0;" edge="1" parent="vW7ADBKtb9ZJt9d_Y6F5-1" source="vW7ADBKtb9ZJt9d_Y6F5-42" target="vW7ADBKtb9ZJt9d_Y6F5-49">
          <mxGeometry relative="1" as="geometry" />
        </mxCell>
        <mxCell id="vW7ADBKtb9ZJt9d_Y6F5-42" value="Service B" style="shape=cube;whiteSpace=wrap;html=1;boundedLbl=1;backgroundOutline=1;darkOpacity=0.05;darkOpacity2=0.1;fillColor=#ffe6cc;fontStyle=1;strokeColor=#d79b00;" vertex="1" parent="vW7ADBKtb9ZJt9d_Y6F5-1">
          <mxGeometry x="610" y="265" width="120" height="80" as="geometry" />
        </mxCell>
        <mxCell id="vW7ADBKtb9ZJt9d_Y6F5-38" value="&lt;b&gt;&lt;font style=&quot;font-size: 14px&quot;&gt;Message Broker&lt;/font&gt;&lt;/b&gt;" style="text;html=1;strokeColor=none;fillColor=none;align=center;verticalAlign=middle;whiteSpace=wrap;rounded=0;" vertex="1" parent="vW7ADBKtb9ZJt9d_Y6F5-1">
          <mxGeometry x="360" y="480" width="120" height="20" as="geometry" />
        </mxCell>
        <mxCell id="vW7ADBKtb9ZJt9d_Y6F5-53" style="edgeStyle=none;rounded=0;orthogonalLoop=1;jettySize=auto;html=1;entryX=-0.017;entryY=0.65;entryDx=0;entryDy=0;entryPerimeter=0;strokeWidth=2;exitX=1;exitY=0.5;exitDx=0;exitDy=0;exitPerimeter=0;dashed=1;" edge="1" parent="vW7ADBKtb9ZJt9d_Y6F5-1" source="vW7ADBKtb9ZJt9d_Y6F5-48" target="vW7ADBKtb9ZJt9d_Y6F5-40">
          <mxGeometry relative="1" as="geometry" />
        </mxCell>
        <mxCell id="vW7ADBKtb9ZJt9d_Y6F5-48" value="&lt;b&gt;Topic 1&lt;/b&gt;" style="strokeWidth=2;html=1;shape=mxgraph.flowchart.direct_data;whiteSpace=wrap;fillColor=#cdeb8b;strokeColor=#36393d;" vertex="1" parent="vW7ADBKtb9ZJt9d_Y6F5-1">
          <mxGeometry x="370" y="160" width="100" height="40" as="geometry" />
        </mxCell>
        <mxCell id="vW7ADBKtb9ZJt9d_Y6F5-49" value="&lt;b&gt;Topic 3&lt;/b&gt;" style="strokeWidth=2;html=1;shape=mxgraph.flowchart.direct_data;whiteSpace=wrap;fillColor=#cdeb8b;strokeColor=#36393d;" vertex="1" parent="vW7ADBKtb9ZJt9d_Y6F5-1">
          <mxGeometry x="370" y="320" width="100" height="40" as="geometry" />
        </mxCell>
        <mxCell id="vW7ADBKtb9ZJt9d_Y6F5-57" style="edgeStyle=none;rounded=0;orthogonalLoop=1;jettySize=auto;html=1;entryX=0;entryY=0.463;entryDx=0;entryDy=0;entryPerimeter=0;strokeWidth=2;dashed=1;exitX=1;exitY=0.5;exitDx=0;exitDy=0;exitPerimeter=0;" edge="1" parent="vW7ADBKtb9ZJt9d_Y6F5-1" source="vW7ADBKtb9ZJt9d_Y6F5-50" target="vW7ADBKtb9ZJt9d_Y6F5-42">
          <mxGeometry relative="1" as="geometry" />
        </mxCell>
        <mxCell id="vW7ADBKtb9ZJt9d_Y6F5-58" style="edgeStyle=none;rounded=0;orthogonalLoop=1;jettySize=auto;html=1;entryX=0;entryY=0;entryDx=0;entryDy=30;entryPerimeter=0;strokeWidth=2;dashed=1;exitX=1;exitY=0.5;exitDx=0;exitDy=0;exitPerimeter=0;" edge="1" parent="vW7ADBKtb9ZJt9d_Y6F5-1" source="vW7ADBKtb9ZJt9d_Y6F5-50" target="vW7ADBKtb9ZJt9d_Y6F5-41">
          <mxGeometry relative="1" as="geometry" />
        </mxCell>
        <mxCell id="vW7ADBKtb9ZJt9d_Y6F5-50" value="&lt;b&gt;Topic 2&lt;/b&gt;" style="strokeWidth=2;html=1;shape=mxgraph.flowchart.direct_data;whiteSpace=wrap;fillColor=#cdeb8b;strokeColor=#36393d;" vertex="1" parent="vW7ADBKtb9ZJt9d_Y6F5-1">
          <mxGeometry x="370" y="240" width="100" height="40" as="geometry" />
        </mxCell>
        <mxCell id="vW7ADBKtb9ZJt9d_Y6F5-60" style="edgeStyle=none;rounded=0;orthogonalLoop=1;jettySize=auto;html=1;entryX=0;entryY=0;entryDx=0;entryDy=30;entryPerimeter=0;strokeWidth=2;exitX=1;exitY=0.5;exitDx=0;exitDy=0;exitPerimeter=0;dashed=1;" edge="1" parent="vW7ADBKtb9ZJt9d_Y6F5-1" source="vW7ADBKtb9ZJt9d_Y6F5-49" target="vW7ADBKtb9ZJt9d_Y6F5-41">
          <mxGeometry relative="1" as="geometry" />
        </mxCell>
        <mxCell id="vW7ADBKtb9ZJt9d_Y6F5-69" style="edgeStyle=none;rounded=0;orthogonalLoop=1;jettySize=auto;html=1;entryX=1.008;entryY=0.875;entryDx=0;entryDy=0;entryPerimeter=0;strokeWidth=2;dashed=1;" edge="1" parent="vW7ADBKtb9ZJt9d_Y6F5-1" source="vW7ADBKtb9ZJt9d_Y6F5-51" target="vW7ADBKtb9ZJt9d_Y6F5-31">
          <mxGeometry relative="1" as="geometry" />
        </mxCell>
        <mxCell id="vW7ADBKtb9ZJt9d_Y6F5-51" value="&lt;b&gt;Topic 4&lt;/b&gt;" style="strokeWidth=2;html=1;shape=mxgraph.flowchart.direct_data;whiteSpace=wrap;fillColor=#cdeb8b;strokeColor=#36393d;" vertex="1" parent="vW7ADBKtb9ZJt9d_Y6F5-1">
          <mxGeometry x="370" y="400" width="100" height="40" as="geometry" />
        </mxCell>
        <mxCell id="vW7ADBKtb9ZJt9d_Y6F5-64" value="" style="group;container=1;" vertex="1" connectable="0" parent="vW7ADBKtb9ZJt9d_Y6F5-1">
          <mxGeometry x="100" y="120" width="90" height="20" as="geometry" />
        </mxCell>
        <mxCell id="vW7ADBKtb9ZJt9d_Y6F5-62" value="" style="endArrow=classic;html=1;strokeWidth=2;" edge="1" parent="vW7ADBKtb9ZJt9d_Y6F5-64">
          <mxGeometry width="50" height="50" relative="1" as="geometry">
            <mxPoint y="46" as="sourcePoint" />
            <mxPoint x="90" y="46" as="targetPoint" />
          </mxGeometry>
        </mxCell>
        <mxCell id="vW7ADBKtb9ZJt9d_Y6F5-63" value="&lt;font style=&quot;font-size: 14px&quot;&gt;Publishes&lt;/font&gt;" style="text;html=1;strokeColor=none;fillColor=none;align=center;verticalAlign=middle;whiteSpace=wrap;rounded=0;" vertex="1" parent="vW7ADBKtb9ZJt9d_Y6F5-64">
          <mxGeometry x="20" y="45" width="40" height="20" as="geometry" />
        </mxCell>
        <mxCell id="vW7ADBKtb9ZJt9d_Y6F5-65" value="" style="group" vertex="1" connectable="0" parent="vW7ADBKtb9ZJt9d_Y6F5-1">
          <mxGeometry x="102" y="192" width="90" height="20" as="geometry" />
        </mxCell>
        <mxCell id="vW7ADBKtb9ZJt9d_Y6F5-66" value="" style="endArrow=classic;html=1;dashed=1;strokeWidth=2;" edge="1" parent="vW7ADBKtb9ZJt9d_Y6F5-65">
          <mxGeometry width="50" height="50" relative="1" as="geometry">
            <mxPoint as="sourcePoint" />
            <mxPoint x="90" as="targetPoint" />
          </mxGeometry>
        </mxCell>
        <mxCell id="vW7ADBKtb9ZJt9d_Y6F5-67" value="&lt;font style=&quot;font-size: 14px&quot;&gt;Consumes&lt;/font&gt;" style="text;html=1;strokeColor=none;fillColor=none;align=center;verticalAlign=middle;whiteSpace=wrap;rounded=0;" vertex="1" parent="vW7ADBKtb9ZJt9d_Y6F5-65">
          <mxGeometry x="20" width="40" height="20" as="geometry" />
        </mxCell>
      </root>
    </mxGraphModel>
  </diagram>
</mxfile>
